<?xml version="1.0" encoding="utf-8"?>
<!-- Generator: Adobe Illustrator 25.0.1, SVG Export Plug-In . SVG Version: 6.00 Build 0)  -->
<svg version="1.1" id="图层_1" xmlns="http://www.w3.org/2000/svg" xmlns:xlink="http://www.w3.org/1999/xlink" x="0px" y="0px"
	 viewBox="0 0 41.5538063 29.7999992" style="enable-background:new 0 0 41.5538063 29.7999992;" xml:space="preserve">
<style type="text/css">
	.st0{fill:#2A8B92;}
	.st1{opacity:0.2;}
</style>
<g>
	<g>
		<g>
			<path class="st0" d="M26.5449696,19.8987789H14.6025867c-0.331543,0-0.6000977-0.2685547-0.6000977-0.6000977V6.4637203
				c0-0.8701172,0.7080078-1.578125,1.578125-1.578125h10.9643555c0.5556641,0,1.0068359,0.4521484,1.0068359,1.0078125v12.9975586
				C27.5518055,19.4466305,27.1006336,19.8987789,26.5449696,19.8987789z M15.2026844,18.6985836h11.1499023V6.0857906H15.5806141
				c-0.2084961,0-0.3779297,0.1694336-0.3779297,0.3779297V18.6985836z"/>
		</g>
		<g>
			<path class="st0" d="M22.0801258,21.7972164h-6.4995117c-0.8701172,0-1.578125-0.7080078-1.578125-1.578125v-1.3261719
				c0-0.331543,0.2685547-0.6000977,0.6000977-0.6000977s0.6000977,0.2685547,0.6000977,0.6000977v1.3261719
				c0,0.2084961,0.1694336,0.3779297,0.3779297,0.3779297h6.4995117c0.3310547,0,0.5996094,0.2685547,0.5996094,0.6000977
				S22.4111805,21.7972164,22.0801258,21.7972164z"/>
		</g>
		<g>
			<path class="st0" d="M25.3506336,21.7972164h-1.0136719c-0.3310547,0-0.5996094-0.2685547-0.5996094-0.6000977
				s0.2685547-0.6000977,0.5996094-0.6000977h0.8212891v-1.2983398c0-0.331543,0.2685547-0.6000977,0.5996094-0.6000977
				s0.5996094,0.2685547,0.5996094,0.6000977v1.4907227C26.3574696,21.345068,25.9062977,21.7972164,25.3506336,21.7972164z"/>
		</g>
		<g>
			<g>
				<path class="st0" d="M16.6313953,19.8987789h-2.0288086c-0.331543,0-0.6000977-0.2685547-0.6000977-0.6000977V6.4637203
					c0-0.8701172,0.7080078-1.578125,1.578125-1.578125h1.0507812c0.331543,0,0.6000977,0.2685547,0.6000977,0.6000977v13.8129883
					C17.231493,19.6302242,16.9629383,19.8987789,16.6313953,19.8987789z M15.2026844,18.6985836h0.8286133V6.0857906h-0.4506836
					c-0.2084961,0-0.3779297,0.1694336-0.3779297,0.3779297V18.6985836z"/>
			</g>
			<g class="st1">
				<path class="st0" d="M16.6314888,19.2986755h-2.0291367V6.4638071c0-0.5401831,0.4379053-0.9780879,0.9780874-0.9780879
					h1.0510492V19.2986755z"/>
			</g>
		</g>
		<g>
			<path class="st0" d="M23.7363758,17.345068h-3.9208984c-0.2207031,0-0.3999023-0.1791992-0.3999023-0.3999023
				s0.1791992-0.3999023,0.3999023-0.3999023h3.9208984c0.2207031,0,0.4003906,0.1791992,0.4003906,0.3999023
				S23.9570789,17.345068,23.7363758,17.345068z"/>
		</g>
		<g>
			<g>
				<g>
					<g>
						<path class="st0" d="M19.8900127,9.6393814h-1.3613224v-0.408042h1.3613224
							c0.0785007,0,0.1423378-0.0638361,0.1423378-0.1423368c0-0.0784998-0.0638371-0.1423359-0.1423378-0.1423359h-0.8109436
							c-0.3034821,0-0.5503788-0.2468977-0.5503788-0.5503788c0-0.3060322,0.2468967-0.5529294,0.5503788-0.5529294h1.3613224
							v0.4080424h-1.3613224c-0.0785007,0-0.1423359,0.0638361-0.1423359,0.1422968
							c0,0.08109,0.0638351,0.1449261,0.1423359,0.1449261h0.8109436c0.3034821,0,0.5503788,0.2468977,0.5503788,0.5503788
							C20.4403915,9.3924847,20.1934948,9.6393814,19.8900127,9.6393814z"/>
					</g>
				</g>
				<g>
					<g>
						<g>
							<path class="st0" d="M22.7470665,9.6393814h-1.5449352c-0.2025375,0-0.3667278-0.1641893-0.3667278-0.3667269V8.2100849
								c0-0.2025375,0.1641903-0.3667264,0.3667278-0.3667264h1.5449352v0.4080424h-1.4119396
								c-0.0506344,0-0.0916805,0.0410471-0.0916805,0.0916815V9.139658c0,0.0506344,0.0410461,0.0916815,0.0916805,0.0916815
								h1.4119396V9.6393814z"/>
						</g>
					</g>
					<g>
						<g>
							<rect x="21.5913181" y="8.5373487" class="st0" width="0.9176567" height="0.4080422"/>
						</g>
					</g>
				</g>
				<g>
					<g>
						<path class="st0" d="M24.6457405,7.8433566V9.200778c0,0.0168781-0.0136833,0.0305605-0.0305614,0.0305605h-0.1146049
							c-0.0131207,0-0.0247765-0.0083752-0.0289631-0.0208092L24.05336,7.968214
							c-0.0251179-0.0746083-0.0950565-0.1248574-0.1737785-0.1248574h-0.4318981
							c-0.1687813,0-0.3056068,0.1368246-0.3056068,0.3056064v1.4904203h0.4080448V8.2819614
							c0-0.0168781,0.0136833-0.0305605,0.0305614-0.0305605h0.1146278c0.0131054,0,0.0247536,0.008358,0.0289516,0.0207739
							L24.1443024,9.51474c0.0251846,0.0744982,0.095068,0.1246433,0.173708,0.1246433h0.4301624
							c0.1687813,0,0.3056068-0.1368246,0.3056068-0.3056059V7.8433566H24.6457405z"/>
					</g>
				</g>
			</g>
			<g>
				<g>
					<g>
						<g>
							<path class="st0" d="M22.7471046,12.0548773h-1.5449734c-0.2025375,0-0.3667278-0.1641893-0.3667278-0.3667269v-1.0625696
								c0-0.2025375,0.1641903-0.3667269,0.3667278-0.3667269h1.5449734v0.408042h-1.4119778
								c-0.0506344,0-0.0916805,0.041048-0.0916805,0.0916824v0.7965755c0,0.0506344,0.0410461,0.0916815,0.0916805,0.0916815
								h1.4119778V12.0548773z"/>
						</g>
					</g>
					<g>
						<g>
							<rect x="21.5913181" y="10.9528446" class="st0" width="0.9176567" height="0.4080422"/>
						</g>
					</g>
				</g>
				<g>
					<g>
						<g>
							<path class="st0" d="M25.0537796,12.0548773h-1.5449352c-0.2025375,0-0.3667259-0.1641893-0.3667259-0.3667269v-1.0625696
								c0-0.2025375,0.1641884-0.3667269,0.3667259-0.3667269h1.5449352v0.408042h-1.4119377
								c-0.0506344,0-0.0916824,0.041048-0.0916824,0.0916824v0.7965755c0,0.0506344,0.041048,0.0916815,0.0916824,0.0916815
								h1.4119377V12.0548773z"/>
						</g>
					</g>
					<g>
						<g>
							<rect x="23.8980312" y="10.9528446" class="st0" width="0.9176567" height="0.4080422"/>
						</g>
					</g>
				</g>
				<g>
					<g>
						<path class="st0" d="M20.0431042,12.0548773h-1.1171265c-0.2194157,0-0.3972874-0.1778717-0.3972874-0.3972874v-1.0014486
							c0-0.2194157,0.1778717-0.3972874,0.3972874-0.3972874h1.5144138v0.408042h-1.4119778
							c-0.0506344,0-0.0916805,0.041048-0.0916805,0.0916824v0.7965755c0,0.0506344,0.0410461,0.0916815,0.0916805,0.0916815
							h0.9122543c0.0506344,0,0.0916824-0.0410471,0.0916824-0.0916815v-0.1942673H19.284605v-0.408042h1.1557865v0.7047453
							C20.4403915,11.8770056,20.2625198,12.0548773,20.0431042,12.0548773z"/>
					</g>
				</g>
			</g>
		</g>
	</g>
	<g>
		<g>
			<path class="st0" d="M4.3750477,14.6043453c-0.331543,0-0.6000977-0.2685547-0.6000977-0.6000977V1.0789547
				c0-0.331543,0.2685547-0.6000977,0.6000977-0.6000977s0.6000977,0.2685547,0.6000977,0.6000977v12.925293
				C4.9751453,14.3357906,4.7065907,14.6043453,4.3750477,14.6043453z"/>
		</g>
		<g>
			<path class="st0" d="M7.5059071,14.6043453c-0.331543,0-0.6000977-0.2685547-0.6000977-0.6000977V1.0789547
				c0-0.331543,0.2685547-0.6000977,0.6000977-0.6000977s0.6000977,0.2685547,0.6000977,0.6000977v12.925293
				C8.1060047,14.3357906,7.83745,14.6043453,7.5059071,14.6043453z"/>
		</g>
	</g>
	<g>
		<path class="st0" d="M9.8589344,14.8079586H2.0210438c-0.8823241,0-1.6000975-0.7177734-1.6000975-1.6000977V1.9002438
			c0-0.8823242,0.7177734-1.6000977,1.6000975-1.6000977h7.8378906c0.8823242,0,1.6000977,0.7177734,1.6000977,1.6000977v11.3076172
			C11.4590321,14.0901852,10.7412586,14.8079586,9.8589344,14.8079586z M2.0210438,1.5003414
			c-0.220703,0-0.3999022,0.1791992-0.3999022,0.3999023v11.3076172c0,0.2207031,0.1791992,0.3999023,0.3999022,0.3999023h7.8378906
			c0.2207031,0,0.3999023-0.1791992,0.3999023-0.3999023V1.9002438c0-0.2207031-0.1791992-0.3999023-0.3999023-0.3999023H2.0210438z
			"/>
	</g>
	<g>
		<g>
			<g>
				<path class="st0" d="M38.0254402,24.1141109h-4.8222656c-0.3310547,0-0.5996094-0.2685547-0.5996094-0.5996094
					s0.2685547-0.5996094,0.5996094-0.5996094h4.8222656c0.3310547,0,0.5996094,0.2685547,0.5996094,0.5996094
					S38.3564949,24.1141109,38.0254402,24.1141109z"/>
			</g>
			<g>
				<path class="st0" d="M38.0254402,21.5789547h-4.8222656c-0.3310547,0-0.5996094-0.2685547-0.5996094-0.6000977
					s0.2685547-0.6000977,0.5996094-0.6000977h4.8222656c0.3310547,0,0.5996094,0.2685547,0.5996094,0.6000977
					S38.3564949,21.5789547,38.0254402,21.5789547z"/>
			</g>
			<g>
				<path class="st0" d="M38.0254402,19.0437984h-4.8222656c-0.3310547,0-0.5996094-0.2685547-0.5996094-0.6000977
					s0.2685547-0.6000977,0.5996094-0.6000977h4.8222656c0.3310547,0,0.5996094,0.2685547,0.5996094,0.6000977
					S38.3564949,19.0437984,38.0254402,19.0437984z"/>
			</g>
			<g>
				<path class="st0" d="M38.0254402,26.6492672h-4.8222656c-0.3310547,0-0.5996094-0.2685547-0.5996094-0.5996094
					s0.2685547-0.5996094,0.5996094-0.5996094h4.8222656c0.3310547,0,0.5996094,0.2685547,0.5996094,0.5996094
					S38.3564949,26.6492672,38.0254402,26.6492672z"/>
			</g>
		</g>
		<g>
			<path class="st0" d="M39.5332527,29.4998531h-7.8378925c-0.8818359,0-1.5996094-0.7177734-1.5996094-1.5996094V16.5931149
				c0-0.8823242,0.7177734-1.6000977,1.5996094-1.6000977h7.8378925c0.8818359,0,1.5996094,0.7177734,1.5996094,1.6000977
				v11.3071289C41.1328621,28.7820797,40.4150887,29.4998531,39.5332527,29.4998531z M31.6953602,16.1932125
				c-0.2207031,0-0.4003906,0.1791992-0.4003906,0.3999023v11.3071289c0,0.2207031,0.1796875,0.4003906,0.4003906,0.4003906
				h7.8378925c0.2207031,0,0.4003906-0.1796875,0.4003906-0.4003906V16.5931149
				c0-0.2207031-0.1796875-0.3999023-0.4003906-0.3999023H31.6953602z"/>
		</g>
	</g>
	<g>
		<g>
			<path class="st0" d="M35.6143074,13.4866695c-0.3310547,0-0.5996094-0.2685547-0.5996094-0.6000977V2.9656734
				c0-0.8081055-0.6582031-1.465332-1.4658203-1.465332H22.5840321c-0.8076172,0-1.4658203,0.6572266-1.4658203,1.465332v2.2680664
				c0,0.331543-0.2685547,0.6000977-0.5996094,0.6000977s-0.6000977-0.2685547-0.6000977-0.6000977V2.9656734
				c0-1.4697266,1.1958008-2.6655273,2.6655273-2.6655273h10.9648457c1.4697266,0,2.6650391,1.1958008,2.6650391,2.6655273
				v9.9208984C36.2139168,13.2181149,35.9453621,13.4866695,35.6143074,13.4866695z"/>
		</g>
		<g>
			<path class="st0" d="M35.6143074,13.8289547c-0.1513672,0-0.3037109-0.0571289-0.4199219-0.171875l-2-1.9614258
				c-0.2363281-0.2319336-0.2402344-0.6118164-0.0087891-0.8481445c0.234375-0.2368164,0.6142578-0.2407227,0.8486328-0.0083008
				l1.5800781,1.5493164l1.5800781-1.5493164c0.2363281-0.2329102,0.6152344-0.2285156,0.8486328,0.0083008
				c0.2314453,0.2363281,0.2275391,0.6162109-0.0087891,0.8481445l-2,1.9614258
				C35.9180183,13.7718258,35.7656746,13.8289547,35.6143074,13.8289547z"/>
		</g>
	</g>
	<g>
		<g>
			<path class="st0" d="M18.4604969,29.4998531H8.0054188c-1.4697266,0-2.6655273-1.1953125-2.6655273-2.6650391V14.3880367
				c0-0.331543,0.2685547-0.6000977,0.6000977-0.6000977s0.6000977,0.2685547,0.6000977,0.6000977v12.4467773
				c0,0.8076172,0.6572266,1.4658203,1.465332,1.4658203h10.4550781c0.8076172,0,1.4648438-0.6582031,1.4648438-1.4658203v-2.859375
				c0-0.3310547,0.269043-0.5996094,0.6000977-0.5996094s0.5996094,0.2685547,0.5996094,0.5996094v2.859375
				C21.1250477,28.3045406,19.9297352,29.4998531,18.4604969,29.4998531z"/>
		</g>
		<g>
			<path class="st0" d="M18.5259266,26.1941891c-0.1552734,0-0.3110352-0.0595703-0.4282227-0.1796875
				c-0.2319336-0.2363281-0.2285156-0.6162109,0.0083008-0.8486328l1.9995117-1.9609375
				c0.2324219-0.2285156,0.6074219-0.2285156,0.8398438,0l2,1.9609375c0.2363281,0.2324219,0.2402344,0.6123047,0.0087891,0.8486328
				c-0.2333984,0.2373047-0.6132812,0.2412109-0.8486328,0.0087891l-1.5800781-1.5488281l-1.5795898,1.5488281
				C18.8291492,26.1375484,18.6777821,26.1941891,18.5259266,26.1941891z"/>
		</g>
	</g>
</g>
</svg>
