<?xml version="1.0" encoding="utf-8"?>
<!-- Generator: Adobe Illustrator 28.2.0, SVG Export Plug-In . SVG Version: 6.00 Build 0)  -->
<svg version="1.1" id="图层_1" xmlns="http://www.w3.org/2000/svg" xmlns:xlink="http://www.w3.org/1999/xlink" x="0px" y="0px"
	 viewBox="0 0 50.2276573 29.7999992" style="enable-background:new 0 0 50.2276573 29.7999992;" xml:space="preserve">
<style type="text/css">
	.st0{fill:#2A8B92;}
</style>
<g>
	<path class="st0" d="M32.1340942,3.3680172L31.090147,1.5599117c-0.1660156-0.2861328-0.53125-0.3857422-0.8193359-0.2192383
		L29.902647,1.5525875c-0.1269531-0.0849609-0.2587891-0.1616211-0.3955078-0.2294922V0.9002438
		c0-0.331543-0.2685547-0.6000977-0.5996094-0.6000977h-2.0869141c-0.3310547,0-0.5996094,0.2685547-0.5996094,0.6000977v0.4228516
		c-0.1367188,0.0678711-0.2685547,0.1445312-0.3955078,0.2294922l-0.3681641-0.2119141
		C25.168272,1.1741695,24.8030376,1.2742672,24.6379986,1.5604l-1.0429688,1.8076172
		c-0.1660156,0.2871094-0.0673828,0.6533203,0.2197266,0.8193359l0.3554688,0.2060547
		c-0.0058594,0.0771484-0.0087891,0.1552734-0.0087891,0.234375s0.0029297,0.1572266,0.0087891,0.234375l-0.3554688,0.2060547
		c-0.2871094,0.1660156-0.3857422,0.5322266-0.2197266,0.8193359l1.0429688,1.8076172
		c0.1650391,0.2871094,0.5302734,0.3857422,0.8193359,0.2197266l0.3681641-0.2119141
		c0.1269531,0.0849609,0.2587891,0.1611328,0.3955078,0.2294922v0.4228516c0,0.3310547,0.2685547,0.5996094,0.5996094,0.5996094
		h2.0869141c0.3310547,0,0.5996094-0.2685547,0.5996094-0.5996094V7.9324703
		c0.1367188-0.0683594,0.2685547-0.1445312,0.3955078-0.2294922l0.3681641,0.2119141
		c0.2890625,0.1669922,0.6542969,0.0673828,0.8193359-0.2197266l1.0439472-1.8076172
		c0.1660156-0.2871094,0.0673828-0.6533203-0.2197285-0.8193359l-0.3564453-0.2060547
		c0.0058594-0.0771484,0.0087891-0.1552734,0.0087891-0.234375s-0.0029297-0.1572266-0.0087891-0.234375l0.3564453-0.2060547
		C32.2014771,4.0213375,32.3001099,3.6551266,32.1340942,3.3680172z M30.3206158,4.1795406
		c0.0263672,0.1464844,0.046875,0.2949219,0.046875,0.4482422s-0.0205078,0.3027344-0.046875,0.4482422
		c-0.0439453,0.2480469,0.0712891,0.4980469,0.2910156,0.625l0.1835938,0.1064453L30.3508892,6.576025L30.159483,6.4656734
		c-0.21875-0.125-0.4931641-0.1015625-0.6875,0.0615234c-0.2324219,0.1962891-0.4902344,0.3466797-0.7675781,0.4462891
		c-0.2382812,0.0849609-0.3964844,0.3115234-0.3964844,0.5644531v0.2177734h-0.8876953V7.5379391
		c0-0.2529297-0.1582031-0.4785156-0.3964844-0.5644531c-0.2783203-0.1005859-0.5361328-0.25-0.7675781-0.4462891
		c-0.1943359-0.1630859-0.4677734-0.1865234-0.6875-0.0615234L25.3772564,6.576025L24.933897,5.8074703l0.1835938-0.1064453
		c0.2207031-0.1269531,0.3359375-0.3789062,0.2900391-0.6289062c-0.0263672-0.1435547-0.046875-0.2919922-0.046875-0.4443359
		s0.0205078-0.2998047,0.046875-0.4453125c0.0458984-0.25-0.0703125-0.5009766-0.2900391-0.6279297L24.933897,3.4480953
		l0.4433594-0.7685547l0.1914062,0.1103516c0.21875,0.1269531,0.4951172,0.1025391,0.6875-0.0620117
		c0.2304688-0.1953125,0.4882812-0.3452148,0.7666016-0.4448242c0.2392578-0.0859375,0.3974609-0.3115234,0.3974609-0.5649414
		V1.5003414h0.8876953v0.2177734c0,0.253418,0.1591797,0.4794922,0.3974609,0.5649414
		c0.2773438,0.0991211,0.5351562,0.2490234,0.7666016,0.4448242c0.1933594,0.1650391,0.46875,0.1894531,0.6875,0.0620117
		l0.1914062-0.1103516l0.4443359,0.7685547l-0.1835938,0.1064453C30.3928814,3.6805172,30.2766705,3.9305172,30.3206158,4.1795406z"
		/>
	<path class="st0" d="M27.8645611,2.8753414c-0.9658203,0-1.7519531,0.7866211-1.7519531,1.7524414
		s0.7861328,1.7519531,1.7519531,1.7519531s1.7519531-0.7861328,1.7519531-1.7519531S28.8303814,2.8753414,27.8645611,2.8753414z
		 M27.8645611,5.1805172c-0.3046875,0-0.5527344-0.2480469-0.5527344-0.5527344s0.2480469-0.5527344,0.5527344-0.5527344
		s0.5527344,0.2480469,0.5527344,0.5527344S28.1692486,5.1805172,27.8645611,5.1805172z"/>
	<path class="st0" d="M32.1340942,23.9129391l-1.0439472-1.8076172c-0.1660156-0.2861328-0.53125-0.3867188-0.8193359-0.2197266
		l-0.3681641,0.2119141c-0.1269531-0.0849609-0.2587891-0.1611328-0.3955078-0.2294922v-0.4228516
		c0-0.3310547-0.2685547-0.5996094-0.5996094-0.5996094h-2.0869141c-0.3310547,0-0.5996094,0.2685547-0.5996094,0.5996094v0.4228516
		c-0.1367188,0.0683594-0.2685547,0.1445312-0.3955078,0.2294922l-0.3681641-0.2119141
		c-0.2890625-0.1669922-0.6542969-0.0664062-0.8193359,0.2197266l-1.0429688,1.8076172
		c-0.1660156,0.2871094-0.0673828,0.6533203,0.2197266,0.8193359l0.3554688,0.2060547
		c-0.0058594,0.0771484-0.0087891,0.1552734-0.0087891,0.234375s0.0029297,0.1572266,0.0087891,0.234375l-0.3554688,0.2060547
		c-0.2871094,0.1660156-0.3857422,0.5322266-0.2197266,0.8193359l1.0429688,1.8076172
		c0.1650391,0.2871094,0.5302734,0.3857422,0.8193359,0.2197266L25.8254986,28.2479
		c0.1269531,0.0849609,0.2587891,0.1611328,0.3955078,0.2294922v0.4228516c0,0.3310547,0.2685547,0.5996094,0.5996094,0.5996094
		h2.0869141c0.3310547,0,0.5996094-0.2685547,0.5996094-0.5996094v-0.4228516
		c0.1367188-0.0683594,0.2685547-0.1445312,0.3955078-0.2294922l0.3681641,0.2119141
		c0.2890625,0.1669922,0.6542969,0.0673828,0.8193359-0.2197266l1.0439472-1.8076172
		c0.1660156-0.2871094,0.0673828-0.6533203-0.2197285-0.8193359l-0.3564453-0.2060547
		c0.0058594-0.0771484,0.0087891-0.1552734,0.0087891-0.234375s-0.0029297-0.1572266-0.0087891-0.234375l0.3564453-0.2060547
		C32.2014771,24.5662594,32.3001099,24.2000484,32.1340942,23.9129391z M30.3206158,24.7244625
		c0.0263672,0.1455078,0.046875,0.2949219,0.046875,0.4482422s-0.0205078,0.3027344-0.046875,0.4482422
		c-0.0439453,0.2480469,0.0712891,0.4980469,0.2910156,0.625l0.1835938,0.1064453l-0.4443359,0.7685547l-0.1914062-0.1103516
		c-0.21875-0.125-0.4931641-0.1015625-0.6875,0.0615234c-0.2324219,0.1962891-0.4902344,0.3466797-0.7675781,0.4462891
		c-0.2382812,0.0849609-0.3964844,0.3115234-0.3964844,0.5644531v0.2177734h-0.8876953v-0.2177734
		c0-0.2529297-0.1582031-0.4785156-0.3964844-0.5644531c-0.2783203-0.1005859-0.5361328-0.25-0.7675781-0.4462891
		c-0.1943359-0.1630859-0.4677734-0.1865234-0.6875-0.0615234l-0.1914062,0.1103516l-0.4433594-0.7685547l0.1835938-0.1064453
		c0.2207031-0.1269531,0.3359375-0.3789062,0.2900391-0.6289062c-0.0263672-0.1435547-0.046875-0.2919922-0.046875-0.4443359
		s0.0205078-0.3007812,0.046875-0.4443359c0.0458984-0.25-0.0693359-0.5019531-0.2900391-0.6289062l-0.1835938-0.1064453
		l0.4433594-0.7685547l0.1914062,0.1103516c0.21875,0.125,0.4931641,0.1015625,0.6875-0.0615234
		c0.2314453-0.1962891,0.4892578-0.3457031,0.7675781-0.4462891c0.2382812-0.0859375,0.3964844-0.3115234,0.3964844-0.5644531
		V22.044775h0.8876953v0.2177734c0,0.2529297,0.1582031,0.4794922,0.3964844,0.5644531
		c0.2773438,0.0996094,0.5351562,0.25,0.7675781,0.4462891c0.1953125,0.1640625,0.46875,0.1875,0.6875,0.0615234
		l0.1914062-0.1103516l0.4443359,0.7685547l-0.1835938,0.1064453
		C30.3919048,24.2264156,30.2766705,24.4764156,30.3206158,24.7244625z"/>
	<path class="st0" d="M27.8645611,23.4207516c-0.9658203,0-1.7519531,0.7861328-1.7519531,1.7519531
		s0.7861328,1.7519531,1.7519531,1.7519531s1.7519531-0.7861328,1.7519531-1.7519531S28.8303814,23.4207516,27.8645611,23.4207516z
		 M27.8645611,25.7254391c-0.3046875,0-0.5527344-0.2480469-0.5527344-0.5527344s0.2480469-0.5527344,0.5527344-0.5527344
		s0.5527344,0.2480469,0.5527344,0.5527344S28.1692486,25.7254391,27.8645611,25.7254391z"/>
	<path class="st0" d="M32.1340942,13.6404781l-1.0439472-1.8076172c-0.1660156-0.2861328-0.53125-0.3867188-0.8193359-0.2197266
		l-0.3681641,0.2119141c-0.1269531-0.0849609-0.2587891-0.1611328-0.3955078-0.2294922v-0.4228516
		c0-0.3310547-0.2685547-0.5996094-0.5996094-0.5996094h-2.0869141c-0.3310547,0-0.5996094,0.2685547-0.5996094,0.5996094v0.4228516
		c-0.1367188,0.0683594-0.2685547,0.1445312-0.3955078,0.2294922l-0.3681641-0.2119141
		c-0.2890625-0.1669922-0.6542969-0.0664062-0.8193359,0.2197266l-1.0429688,1.8076172
		c-0.1660156,0.2871094-0.0673828,0.6533203,0.2197266,0.8193359l0.3554688,0.2060547
		c-0.0058594,0.0771484-0.0087891,0.1552734-0.0087891,0.234375s0.0029297,0.1572266,0.0087891,0.234375l-0.3554688,0.2060547
		c-0.2871094,0.1660156-0.3857422,0.5322266-0.2197266,0.8193359l1.0429688,1.8076172
		c0.1650391,0.2871094,0.5302734,0.3857422,0.8193359,0.2197266l0.3681641-0.2119141
		c0.1269531,0.0849609,0.2587891,0.1611328,0.3955078,0.2294922v0.4228516c0,0.3310547,0.2685547,0.5996094,0.5996094,0.5996094
		h2.0869141c0.3310547,0,0.5996094-0.2685547,0.5996094-0.5996094v-0.4228516
		c0.1367188-0.0683594,0.2685547-0.1445312,0.3955078-0.2294922l0.3681641,0.2119141
		c0.2890625,0.1669922,0.6542969,0.0673828,0.8193359-0.2197266l1.0439472-1.8076172
		c0.1660156-0.2871094,0.0673828-0.6533203-0.2197285-0.8193359l-0.3564453-0.2060547
		c0.0058594-0.0771484,0.0087891-0.1552734,0.0087891-0.234375s-0.0029297-0.1572266-0.0087891-0.234375l0.3564453-0.2060547
		C32.2014771,14.2937984,32.3001099,13.9275875,32.1340942,13.6404781z M30.3206158,14.4520016
		c0.0263672,0.1464844,0.046875,0.2949219,0.046875,0.4482422s-0.0205078,0.3027344-0.046875,0.4482422
		c-0.0439453,0.2480469,0.0712891,0.4980469,0.2910156,0.625l0.1835938,0.1064453l-0.4443359,0.7685547l-0.1914062-0.1103516
		c-0.21875-0.125-0.4931641-0.1015625-0.6875,0.0615234c-0.2324219,0.1962891-0.4902344,0.3466797-0.7675781,0.4462891
		c-0.2382812,0.0849609-0.3964844,0.3115234-0.3964844,0.5644531v0.2177734h-0.8876953V17.8104
		c0-0.2529297-0.1582031-0.4785156-0.3964844-0.5644531c-0.2783203-0.1005859-0.5361328-0.25-0.7675781-0.4462891
		c-0.1943359-0.1630859-0.4677734-0.1865234-0.6875-0.0615234l-0.1914062,0.1103516l-0.4433594-0.7685547l0.1835938-0.1064453
		c0.2207031-0.1269531,0.3359375-0.3789062,0.2900391-0.6289062c-0.0263672-0.1435547-0.046875-0.2919922-0.046875-0.4443359
		s0.0205078-0.2998047,0.046875-0.4453125c0.0458984-0.25-0.0703125-0.5009766-0.2900391-0.6279297l-0.1835938-0.1064453
		l0.4433594-0.7685547l0.1914062,0.1103516c0.21875,0.1259766,0.4931641,0.1015625,0.6875-0.0615234
		c0.2314453-0.1962891,0.4892578-0.3457031,0.7675781-0.4462891c0.2382812-0.0859375,0.3964844-0.3115234,0.3964844-0.5644531
		v-0.2177734h0.8876953v0.2177734c0,0.2529297,0.1582031,0.4794922,0.3964844,0.5644531
		c0.2773438,0.0996094,0.5351562,0.25,0.7675781,0.4462891c0.1953125,0.1640625,0.46875,0.1875,0.6875,0.0615234
		l0.1914062-0.1103516l0.4443359,0.7685547l-0.1835938,0.1064453
		C30.3928814,13.9529781,30.2766705,14.2029781,30.3206158,14.4520016z"/>
	<path class="st0" d="M27.8645611,13.1482906c-0.9658203,0-1.7519531,0.7861328-1.7519531,1.7519531
		s0.7861328,1.7519531,1.7519531,1.7519531s1.7519531-0.7861328,1.7519531-1.7519531S28.8303814,13.1482906,27.8645611,13.1482906z
		 M27.8645611,15.4529781c-0.3046875,0-0.5527344-0.2480469-0.5527344-0.5527344s0.2480469-0.5527344,0.5527344-0.5527344
		s0.5527344,0.2480469,0.5527344,0.5527344S28.1692486,15.4529781,27.8645611,15.4529781z"/>
	<path class="st0" d="M48.2346802,0.3001461h-4.5c-0.8818359,0-1.5996094,0.7177734-1.5996094,1.6000977v4.5
		c0,0.8818359,0.7177734,1.5996094,1.5996094,1.5996094h4.5c0.8818359,0,1.5996094-0.7177734,1.5996094-1.5996094v-4.5
		C49.8342896,1.0179195,49.1165161,0.3001461,48.2346802,0.3001461z M48.6350708,6.4002438
		c0,0.2207031-0.1796875,0.4003906-0.4003906,0.4003906h-4.5c-0.2207031,0-0.4003906-0.1796875-0.4003906-0.4003906v-4.5
		c0-0.2207031,0.1796875-0.3999023,0.4003906-0.3999023h4.5c0.2207031,0,0.4003906,0.1791992,0.4003906,0.3999023V6.4002438z"/>
	<path class="st0" d="M48.2346802,11.0506344h-4.5c-0.8818359,0-1.5996094,0.7177734-1.5996094,1.5996094v4.5
		c0,0.8818359,0.7177734,1.5996094,1.5996094,1.5996094h4.5c0.8818359,0,1.5996094-0.7177734,1.5996094-1.5996094v-4.5
		C49.8342896,11.7684078,49.1165161,11.0506344,48.2346802,11.0506344z M48.6350708,17.1502438
		c0,0.2207031-0.1796875,0.4003906-0.4003906,0.4003906h-4.5c-0.2207031,0-0.4003906-0.1796875-0.4003906-0.4003906v-4.5
		c0-0.2207031,0.1796875-0.4003906,0.4003906-0.4003906h4.5c0.2207031,0,0.4003906,0.1796875,0.4003906,0.4003906V17.1502438z"/>
	<path class="st0" d="M48.2346802,21.8006344h-4.5c-0.8818359,0-1.5996094,0.7177734-1.5996094,1.5996094v4.5
		c0,0.8818359,0.7177734,1.5996094,1.5996094,1.5996094h4.5c0.8818359,0,1.5996094-0.7177734,1.5996094-1.5996094v-4.5
		C49.8342896,22.5184078,49.1165161,21.8006344,48.2346802,21.8006344z M48.6350708,27.9002438
		c0,0.2207031-0.1796875,0.4003906-0.4003906,0.4003906h-4.5c-0.2207031,0-0.4003906-0.1796875-0.4003906-0.4003906v-4.5
		c0-0.2207031,0.1796875-0.4003906,0.4003906-0.4003906h4.5c0.2207031,0,0.4003906,0.1796875,0.4003906,0.4003906V27.9002438z"/>
	<path class="st0" d="M37.7874146,1.7000484c-0.2460938-0.2182617-0.625-0.1953125-0.8466797,0.0532227
		c-0.21875,0.2485352-0.1953125,0.6279297,0.0537109,0.847168l1.0688477,0.9423828h-3.190918
		c-0.3310547,0-0.5996094,0.2685547-0.5996094,0.5996094s0.2685547,0.5996094,0.5996094,0.5996094h3.2086792l-1.0866089,0.9580078
		c-0.2490234,0.2197266-0.2724609,0.5986328-0.0537109,0.8466797c0.1191406,0.1347656,0.2841797,0.203125,0.4501953,0.203125
		c0.1416016,0,0.2832031-0.0488281,0.3964844-0.1494141l1.9667969-1.734375
		c0.2050781-0.1806641,0.3222656-0.4423828,0.3222656-0.7158203s-0.1171875-0.5351562-0.3232422-0.7167969L37.7874146,1.7000484z"/>
	<path class="st0" d="M37.7874146,12.4500484c-0.2460938-0.2177734-0.625-0.1953125-0.8466797,0.0537109
		c-0.21875,0.2480469-0.1953125,0.6269531,0.0537109,0.8466797l1.0688477,0.9423828h-3.190918
		c-0.3310547,0-0.5996094,0.2685547-0.5996094,0.5996094s0.2685547,0.5996094,0.5996094,0.5996094h3.2086792l-1.0866089,0.9580078
		c-0.2490234,0.2197266-0.2724609,0.5986328-0.0537109,0.8466797c0.1191406,0.1347656,0.2841797,0.203125,0.4501953,0.203125
		c0.1416016,0,0.2832031-0.0488281,0.3964844-0.1494141l1.9667969-1.734375
		c0.2050781-0.1806641,0.3222656-0.4423828,0.3222656-0.7158203s-0.1171875-0.5351562-0.3232422-0.7167969L37.7874146,12.4500484z"
		/>
	<path class="st0" d="M37.7874146,23.2000484c-0.2460938-0.2177734-0.625-0.1953125-0.8466797,0.0537109
		c-0.21875,0.2480469-0.1953125,0.6269531,0.0537109,0.8466797l1.0688477,0.9423828h-3.190918
		c-0.3310547,0-0.5996094,0.2685547-0.5996094,0.5996094s0.2685547,0.5996094,0.5996094,0.5996094h3.2086792l-1.0866089,0.9580078
		c-0.2490234,0.2197266-0.2724609,0.5986328-0.0537109,0.8466797c0.1191406,0.1347656,0.2841797,0.203125,0.4501953,0.203125
		c0.1416016,0,0.2832031-0.0488281,0.3964844-0.1494141l1.9667969-1.734375
		c0.2050781-0.1806641,0.3222656-0.4423828,0.3222656-0.7158203s-0.1171875-0.5351562-0.3232422-0.7167969L37.7874146,23.2000484z"
		/>
	<path class="st0" d="M19.1663189,1.7000484c-0.2451172-0.2182617-0.625-0.1953125-0.8466797,0.0532227
		c-0.21875,0.2485352-0.1953125,0.6279297,0.0537109,0.847168l1.0688477,0.9423828h-3.190918
		c-0.3310537,0-0.5996084,0.2685547-0.5996084,0.5996094s0.2685547,0.5996094,0.5996084,0.5996094h3.2086792l-1.0866089,0.9580078
		c-0.2490234,0.2197266-0.2724609,0.5986328-0.0537109,0.8466797c0.1191406,0.1347656,0.2841797,0.203125,0.4501953,0.203125
		c0.1416016,0,0.2832031-0.0488281,0.3964844-0.1494141l1.9667969-1.734375
		c0.2050781-0.1806641,0.3222656-0.4423828,0.3222656-0.7158203s-0.1171875-0.5351562-0.3232422-0.7167969L19.1663189,1.7000484z"/>
	<path class="st0" d="M19.1663189,12.4500484c-0.2451172-0.2177734-0.625-0.1953125-0.8466797,0.0537109
		c-0.21875,0.2480469-0.1953125,0.6269531,0.0537109,0.8466797l1.0688477,0.9423828h-3.190918
		c-0.3310537,0-0.5996084,0.2685547-0.5996084,0.5996094s0.2685547,0.5996094,0.5996084,0.5996094h3.2086792l-1.0866089,0.9580078
		c-0.2490234,0.2197266-0.2724609,0.5986328-0.0537109,0.8466797c0.1191406,0.1347656,0.2841797,0.203125,0.4501953,0.203125
		c0.1416016,0,0.2832031-0.0488281,0.3964844-0.1494141l1.9667969-1.734375
		c0.2050781-0.1806641,0.3222656-0.4423828,0.3222656-0.7158203s-0.1171875-0.5351562-0.3232422-0.7167969L19.1663189,12.4500484z"
		/>
	<path class="st0" d="M19.1663189,23.2000484c-0.2451172-0.2177734-0.625-0.1953125-0.8466797,0.0537109
		c-0.21875,0.2480469-0.1953125,0.6269531,0.0537109,0.8466797l1.0688477,0.9423828h-3.190918
		c-0.3310537,0-0.5996084,0.2685547-0.5996084,0.5996094s0.2685547,0.5996094,0.5996084,0.5996094h3.2086792l-1.0866089,0.9580078
		c-0.2490234,0.2197266-0.2724609,0.5986328-0.0537109,0.8466797c0.1191406,0.1347656,0.2841797,0.203125,0.4501953,0.203125
		c0.1416016,0,0.2832031-0.0488281,0.3964844-0.1494141l1.9667969-1.734375
		c0.2050781-0.1806641,0.3222656-0.4423828,0.3222656-0.7158203s-0.1171875-0.5351562-0.3232422-0.7167969L19.1663189,23.2000484z"
		/>
	<path class="st0" d="M11.9934683,0.3001461h-10c-0.8823242,0-1.6000977,0.7177734-1.6000977,1.6000977v26
		c0,0.8818359,0.7177734,1.5996094,1.6000977,1.5996094h10c0.8818359,0,1.5996094-0.7177734,1.5996094-1.5996094v-26
		C13.5930777,1.0179195,12.8753042,0.3001461,11.9934683,0.3001461z M8.3933706,1.5003414v26.800293H5.5935659V1.5003414H8.3933706z
		 M1.5935657,27.9002438v-26c0-0.2207031,0.1791992-0.3999023,0.3999023-0.3999023h2.3999026v26.800293H1.993468
		C1.7727649,28.3006344,1.5935657,28.1209469,1.5935657,27.9002438z M12.3938589,27.9002438
		c0,0.2207031-0.1796875,0.4003906-0.4003906,0.4003906H9.5935659V1.5003414h2.3999023
		c0.2207031,0,0.4003906,0.1791992,0.4003906,0.3999023V27.9002438z"/>
</g>
</svg>
